HIERARCHY
ROOT hip
{
  OFFSET 0.0 0.0 0.0
  CHANNELS 6 Xposition Yposition Zposition Zrotation Yrotation Xrotation
  JOINT torso
  {
    OFFSET 0.0 0.0 0.0
    CHANNELS 3 Zrotation Xrotation Yrotation
    JOINT neck
    {
      OFFSET -31.42098999999993 328.8025209999999 74.3554680000002
      CHANNELS 3 Zrotation Xrotation Yrotation
      JOINT head
      {
        OFFSET 3.3519900000001144 303.81732099999994 206.53942900000015
        CHANNELS 3 Zrotation Xrotation Yrotation
        End Site
        {
          OFFSET 0.0 0.0 0.0
        }
      }
    }
    JOINT left_collar
    {
      OFFSET -31.42098999999993 328.8025209999999 74.3554680000002
      CHANNELS 3 Zrotation Xrotation Yrotation
      JOINT left_upper_arm
      {
        OFFSET -124.490479 -8.162841999999841 8.226441000000023
        CHANNELS 3 Zrotation Xrotation Yrotation
        JOINT left_forearm
        {
          OFFSET -253.595764 -1.5758060000000569 105.0729980000001
          CHANNELS 3 Zrotation Xrotation Yrotation
          JOINT left_hand
          {
            OFFSET -269.48803699999996 0.1478270000000066 -55.346191999999974
            CHANNELS 3 Zrotation Xrotation Yrotation
            End Site
            {
              OFFSET 0.0 0.0 0.0
            }
          }
        }
      }
    }
    JOINT right_collar
    {
      OFFSET -31.42098999999993 328.8025209999999 74.3554680000002
      CHANNELS 3 Zrotation Xrotation Yrotation
      JOINT right_upper_arm
      {
        OFFSET 162.02484099999998 0.46441600000002836 2.2303470000001653
        CHANNELS 3 Zrotation Xrotation Yrotation
        JOINT right_forearm
        {
          OFFSET 240.01246700000004 -25.835875999999985 121.34179699999959
          CHANNELS 3 Zrotation Xrotation Yrotation
          JOINT right_hand
          {
            OFFSET 252.48539699999992 18.910399999999868 -67.53466800000001
            CHANNELS 3 Zrotation Xrotation Yrotation
            End Site
            {
              OFFSET 0.0 0.0 0.0
            }
          }
        }
      }
    }
  }
}
MOTION
Frames: 8
Frame Time: 0.01
-257.8109106626397 214.3023581077598 1404.4931365084153 -0.6625825034221547 -0.5483261094046187 -1.5990586591160003 0.6934107728679312 -0.6531113094562496 -0.22301659380769562 -2.9999052350821223 -3.4073097936989476 2.1241121580817697 0.0 0.0 0.0 5.019007268168031 -0.51988495181958 7.781672624108186 40.67295614745864 8.0577921450857 23.186035826774116 43.75711261614431 -3.7070369460809975 -14.0133626036141 0.0 0.0 0.0 1.9743766213512908 -0.14994317475211083 6.0966772111812775 -30.640714077208717 3.4987304046264156 -30.665029180178365 -52.209260197639196 -1.6754968292945958 30.924545616097745 0.0 0.0 0.0
-257.72264753071363 214.2299321040015 1404.456620662484 -0.6614076345021646 -0.5544618697604596 -1.6077551733590876 0.688128095529444 -0.6675990717854945 -0.22325580463735775 -3.0062345515254725 -3.4029467960893887 2.1284127113870546 0.0 0.0 0.0 5.021579355706014 -0.5208077969203315 7.790052257717656 40.67634962297302 8.061531118811114 23.178333908617873 43.751725365547 -3.708143222206854 -14.00937129685442 0.0 0.0 0.0 1.977137877612237 -0.15020895556909156 6.100660499275819 -30.632781461826927 3.4968284632698374 -30.66528745943049 -52.21021115871991 -1.67609449840443 30.92304692391987 0.0 0.0 0.0
-257.63346213004115 214.15766384491496 1404.4188944173188 -0.6604176072278223 -0.561052344131681 -1.616380996238479 0.6829260678559078 -0.6818125075898848 -0.22348467853697168 -3.0124565335544577 -3.398696481497941 2.1326410348949976 0.0 0.0 0.0 5.024308792286573 -0.5217142591080876 7.798275336749186 40.6791363722305 8.065112811003715 23.170695871848658 43.746536997184236 -3.7090836129442066 -14.005836646124026 0.0 0.0 0.0 1.979813893611683 -0.1504600849289679 6.104193127627696 -30.62461175050523 3.49505014244719 -30.665084294601545 -52.211456631339054 -1.6767396391928593 30.921423130327447 0.0 0.0 0.0
-257.54331778715186 214.08554517559668 1404.379543303812 -0.6597243829048919 -0.5683817107675625 -1.624849230172716 0.6778422738481282 -0.6955175620532381 -0.22368838220613638 -3.0184819061104013 -3.3946354834384715 2.136736858811201 0.0 0.0 0.0 5.027245383869092 -0.5225917255260701 7.806225347187617 40.68118109525603 8.068517371351623 23.16309604379229 43.74160606490683 -3.709846355284255 -14.002801631830286 0.0 0.0 0.0 1.9823261680867081 -0.1506899200487649 6.107209512425316 -30.61619206167424 3.4934223680020016 -30.664341713003857 -52.212882998503076 -1.677426361752852 30.919691969002944 0.0 0.0 0.0
-257.45214624808676 214.01351167838882 1404.3380961229195 -0.6594369962216887 -0.5767138943635617 -1.6330798287664623 0.672908586734098 -0.7085064507921291 -0.22385346555793514 -3.0242319925450083 -3.390834489658538 2.1406471600533936 0.0 0.0 0.0 5.0304403879253154 -0.5234300226617891 7.813808018983642 40.68235521119415 8.071732269382967 23.155493631669177 43.73698785103007 -3.7104275665900994 -14.000288938409572 0.0 0.0 0.0 1.9846053022858972 -0.15089283435304573 6.109664529935366 -30.607531666764224 3.491968669354343 -30.66300359867724 -52.214357391481144 -1.6781490707970799 30.91787096805444 0.0 0.0 0.0
-257.3598576672443 213.94144792570538 1404.2940347170145 -0.6596580470018126 -0.5862806647107633 -1.641001983462581 0.6681499442613941 -0.7206057749316842 -0.22396838178364778 -3.0296417906480437 -3.387356116059276 2.1443282484533603 0.0 0.0 0.0 5.033944854857016 -0.5242219632853388 7.820956356957487 40.68254157479391 8.074753130689052 23.14783324268864 43.732732889848506 -3.7108322529410462 -13.998298087549403 0.0 0.0 0.0 1.986594287036995 -0.15106452966542927 6.111537643161036 -30.59866562533105 3.4907083556095873 -30.66104001002866 -52.21572993517231 -1.6789027644996815 30.915976643638572 0.0 0.0 0.0
-257.2663519405522 213.86919437242446 1404.246806420854 -0.6604808727292696 -0.5972718587943924 -1.6485554333637873 0.6635837992738091 -0.7316826086747743 -0.22402395729059627 -3.034662291446295 -3.3842531884306934 2.147747335125522 0.0 0.0 0.0 5.037807761609806 -0.5249636678291569 7.827633615023671 40.68163945722055 8.077584264194487 23.14004634527721 43.72888545050102 -3.7110750292483803 -13.996803278081863 0.0 0.0 0.0 1.9882509646368691 -0.15120226835555892 6.112835833913022 -30.589656731891704 3.4896557552310257 -30.658450346567676 -52.21683685547769 -1.6796832226919973 30.914023943363322 0.0 0.0 0.0
-257.1715308578066 213.79655562460664 1404.1958387841555 -0.6619874544932047 -0.6098281016324183 -1.6556908030822026 0.6592201944391056 -0.7416483630749166 -0.2240137819700908 -3.0392619960860547 -3.381567515319455 2.1508835544205427 0.0 0.0 0.0 5.042073990316023 -0.5256546676876319 7.833834278437428 40.679569637510305 8.080238878796195 23.13205358864629 43.72548204672063 -3.711180508160562 -13.995752057244673 0.0 0.0 0.0 1.9895495558851661 -0.15130501444316413 6.113595221098469 -30.580595519452686 3.4888195863459917 -30.65526503785484 -52.217504466231134 -1.6804870884294216 30.91202592947069 0.0 0.0 0.0
